<?xml version="1.0" standalone="no"?>
<!DOCTYPE svg PUBLIC "-//W3C//DTD SVG 20010904//EN"
 "http://www.w3.org/TR/2001/REC-SVG-20010904/DTD/svg10.dtd">
<svg version="1.0" xmlns="http://www.w3.org/2000/svg"
 width="512.000000pt" height="512.000000pt" viewBox="0 0 512.000000 512.000000"
 preserveAspectRatio="xMidYMid meet">

<g transform="translate(0.000000,512.000000) scale(0.100000,-0.100000)"
fill="#000000" stroke="none">
<path d="M57 3442 l-57 -58 0 -154 0 -154 57 -58 57 -58 213 0 213 0 0 55 0
55 -193 2 -192 3 0 155 0 155 193 3 192 2 0 55 0 55 -213 0 -213 0 -57 -58z"/>
<path d="M677 3442 l-57 -58 0 -212 0 -212 80 0 80 0 0 215 0 216 113 -3 112
-3 3 -77 3 -78 -96 0 -95 0 0 -60 0 -60 95 0 95 0 0 -75 0 -75 75 0 75 0 0
213 0 213 -58 57 -58 57 -155 0 -155 0 -57 -58z"/>
<path d="M1240 3445 l0 -55 193 -2 192 -3 3 -157 3 -158 -115 0 -115 0 -3 138
-3 137 -75 0 -75 0 -3 -192 -2 -193 218 0 218 0 52 53 52 53 0 159 0 159 -57
58 -57 58 -213 0 -213 0 0 -55z"/>
<path d="M1860 3446 l0 -55 98 -3 97 -3 3 -212 2 -213 75 0 75 0 2 213 3 212
95 3 95 3 -1 52 -2 52 -271 3 -271 2 0 -54z"/>
<path d="M2 2663 l3 -118 208 -3 207 -2 0 -335 0 -335 -210 0 -210 0 0 -120 0
-120 580 0 580 0 0 120 0 120 -207 2 -208 3 -3 332 -2 333 207 2 208 3 3 118
3 117 -581 0 -581 0 3 -117z"/>
<path d="M1332 2663 l3 -118 418 -3 417 -2 -2 -333 -3 -332 -252 -3 -253 -2 0
290 0 290 -165 0 -165 0 0 -410 0 -410 458 0 457 0 123 123 122 122 0 332 0
331 -122 121 -123 121 -458 0 -458 0 3 -117z"/>
<path d="M2670 2205 l0 -575 160 0 160 0 0 455 0 455 255 0 256 0 -3 -127 -3
-128 -207 -3 -208 -2 0 -115 0 -115 208 -2 207 -3 3 -207 2 -208 160 0 160 0
0 163 0 162 -85 85 -85 85 85 85 85 85 0 123 0 123 -122 119 -123 119 -452 1
-453 0 0 -575z"/>
<path d="M4000 2660 l0 -120 205 0 205 0 0 -335 0 -335 -205 0 -205 0 0 -120
0 -120 560 0 560 0 0 120 0 120 -192 2 -193 3 -3 333 -2 332 195 0 195 0 0
120 0 120 -560 0 -560 0 0 -120z"/>
</g>
</svg>
